<?xml version="1.0" encoding="utf-8"?>
<!-- Generator: Adobe Illustrator 22.1.0, SVG Export Plug-In . SVG Version: 6.00 Build 0)  -->
<svg version="1.1" id="Layer_1" xmlns="http://www.w3.org/2000/svg" xmlns:xlink="http://www.w3.org/1999/xlink" x="0px" y="0px"
	 viewBox="0 0 1000 656.5" style="enable-background:new 0 0 1000 656.5;" xml:space="preserve">
<style type="text/css">
	.st0{fill:#B01116;}
</style>
<g>
	<path class="st0" d="M760,181.2c0.8-23.8,11.1-33.3,45.2-33.3h187.8V81.4H817c-83.2,0-130,35.6-130,103
		c0,131.5,240.1,104.6,240.1,174.3c0,23.8-12.7,36.5-45.2,36.5H636.3c24.8-30.3,40-69.4,40-114.1c0-112.5-72.9-207.5-196.4-207.5
		c-111.7,0-191.7,84-191.7,209.1v31.1h-84.6c-65.7,0-130.7-42.8-130.7-123.6c0-80.8,65-123.6,130.7-123.6h53.9V0h-66.5
		C102.2,0,0,68.1,0,190.1c0,122,102.2,190.1,190.9,190.1h97.3v276.2h69.7V380.2h132.7v-66.5H357.9v-18.4
		c0-104.6,55.5-155.3,122-155.3c74.5,0,126.7,54.6,126.7,132.3c0,66.7-36.1,110-93.3,122.8h-88.9v66.5H882
		c67.3,0,118-34.1,118-106.1C1000,219.2,759.1,247,760,181.2"/>
	<path d="M481.6,560.8c-3.7,1.7-11.2,3.3-20.8,3.3c-22.2,0-38.9-12.5-38.9-35.6c0-22,16.7-37,41.1-37c9.8,0,16,1.9,18.7,3.1
		l-2.4,7.4c-3.9-1.7-9.4-2.9-15.9-2.9c-18.4,0-30.7,10.5-30.7,29c0,17.2,11.1,28.3,30.2,28.3c6.2,0,12.5-1.1,16.6-2.9L481.6,560.8z"
		/>
	<path d="M498.4,539.6c0.2,12.4,9.1,17.5,19.4,17.5c7.4,0,11.8-1.2,15.6-2.6l1.8,6.5c-3.6,1.5-9.8,3.1-18.8,3.1
		c-17.4,0-27.8-10.2-27.8-25.5c0-15.2,10-27.2,26.5-27.2c18.4,0,23.3,14.5,23.3,23.8c0,1.9-0.2,3.3-0.4,4.3H498.4z M528.5,533
		c0.1-5.8-2.7-14.9-14.2-14.9c-10.4,0-14.9,8.5-15.8,14.9H528.5z"/>
	<path d="M551.1,526.3c0-5.2-0.1-9.5-0.5-13.7h9.1l0.6,8.3h0.2c2.8-4.8,9.3-9.5,18.7-9.5c7.8,0,20,4.2,20,21.5v30.2H589V534
		c0-8.1-3.4-14.9-13.1-14.9c-6.8,0-12,4.3-13.8,9.4c-0.4,1.1-0.7,2.7-0.7,4.3v30.4h-10.3V526.3z"/>
	<path d="M627.9,498.1v14.5h14.7v7h-14.7v27.3c0,6.2,2,9.8,7.7,9.8c2.7,0,4.7-0.3,6-0.6l0.5,6.9c-2,0.7-5.1,1.3-9.1,1.3
		c-4.8,0-8.6-1.4-11.1-3.9c-2.9-2.7-4-7.2-4-13.1v-27.6h-8.8v-7h8.8v-12.1L627.9,498.1z"/>
	<path d="M654.1,528.4c0-6-0.1-11-0.5-15.8h9l0.3,9.9h0.5c2.6-6.8,8.7-11.1,15.6-11.1c1.2,0,2,0.1,2.9,0.3v8.6
		c-1-0.2-2.1-0.3-3.5-0.3c-7.2,0-12.4,4.9-13.8,11.8c-0.2,1.3-0.5,2.7-0.5,4.3v26.9h-10.2V528.4z"/>
	<path d="M742.3,537.5c0,18.7-14.5,26.8-28.1,26.8c-15.3,0-27.1-10-27.1-26c0-16.9,12.4-26.8,28-26.8
		C731.3,511.5,742.3,522,742.3,537.5 M697.5,538c0,11.1,7.1,19.4,17.1,19.4c9.8,0,17.2-8.2,17.2-19.6c0-8.6-4.8-19.4-16.9-19.4
		C702.7,518.4,697.5,528.4,697.5,538"/>
	<path d="M426.6,585.3c4.9-0.7,11.3-1.4,19.5-1.4c10,0,17.4,2.1,22.1,5.9c4.3,3.3,6.9,8.5,6.9,14.7c0,6.4-2.1,11.4-6.1,15
		c-5.4,5.1-14.1,7.7-24,7.7c-3,0-5.9-0.1-8.2-0.6v28.2h-10.2V585.3z M436.7,619.2c2.2,0.5,5,0.7,8.4,0.7c12.3,0,19.7-5.3,19.7-15
		c0-9.3-7.4-13.8-18.6-13.8c-4.4,0-7.8,0.3-9.6,0.7V619.2z"/>
	<path d="M516.6,654.8l-0.8-6.4h-0.3c-3.1,4-9.2,7.5-17.3,7.5c-11.4,0-17.3-7.2-17.3-14.5c0-12.2,12.1-18.9,34-18.8v-1
		c0-4.2-1.3-11.7-12.8-11.7c-5.3,0-10.7,1.5-14.7,3.7l-2.4-6.1c4.7-2.7,11.5-4.5,18.5-4.5c17.3,0,21.5,10.5,21.5,20.7v18.9
		c0,4.4,0.2,8.7,0.9,12.1H516.6z M515.1,629c-11.2-0.2-23.9,1.6-23.9,11.4c0,5.9,4.4,8.8,9.7,8.8c7.4,0,12-4.2,13.7-8.4
		c0.4-1,0.6-2,0.6-2.9V629z"/>
	<path d="M588.9,641c0,5.2,0.1,9.8,0.4,13.8h-9.1l-0.6-8.2h-0.2c-2.7,4.1-8.6,9.4-18.7,9.4c-8.9,0-19.5-4.4-19.5-22.1v-29.5h10.3v28
		c0,9.6,3.3,16.1,12.6,16.1c6.9,0,11.7-4.3,13.5-8.3c0.6-1.4,0.9-3,0.9-4.7v-31h10.3V641z"/>
	<rect x="605.9" y="580.7" width="10.3" height="74.1"/>
	<path d="M664.8,654.8l-0.8-6.4h-0.4c-3.1,4-9.2,7.5-17.3,7.5c-11.4,0-17.3-7.2-17.3-14.5c0-12.2,12.1-18.9,34-18.8v-1
		c0-4.2-1.3-11.7-12.8-11.7c-5.3,0-10.7,1.5-14.7,3.7l-2.3-6.1c4.7-2.7,11.4-4.5,18.6-4.5c17.3,0,21.5,10.5,21.5,20.7v18.9
		c0,4.4,0.2,8.7,0.9,12.1H664.8z M663.3,629c-11.2-0.2-24,1.6-24,11.4c0,5.9,4.4,8.8,9.7,8.8c7.4,0,12-4.2,13.7-8.4
		c0.3-1,0.6-2,0.6-2.9V629z"/>
	<path d="M713.5,643.7c4.5,2.5,11.2,4.6,18.2,4.6c10.4,0,16.5-4.9,16.5-12c0-6.6-4.2-10.3-14.8-14c-12.9-4.1-20.8-10-20.8-19.9
		c0-11,10.1-19.1,25.4-19.1c8,0,13.9,1.7,17.4,3.4l-2.8,7.4c-2.6-1.2-7.8-3.3-15-3.3c-10.7,0-14.8,5.7-14.8,10.5
		c0,6.6,4.8,9.8,15.7,13.6c13.3,4.6,20.1,10.3,20.1,20.7c0,10.9-9,20.2-27.6,20.2c-7.6,0-15.9-2-20.1-4.5L713.5,643.7z"/>
	<path d="M823.9,629.1c0,18.7-14.5,26.8-28.1,26.8c-15.3,0-27.1-10-27.1-26c0-16.9,12.4-26.8,28-26.8
		C812.9,603.1,823.9,613.7,823.9,629.1 M779.1,629.6c0,11.1,7.1,19.4,17.2,19.4c9.8,0,17.2-8.3,17.2-19.6c0-8.5-4.8-19.4-16.9-19.4
		C784.3,610,779.1,620,779.1,629.6"/>
	<path d="M884.1,641c0,5.2,0.1,9.8,0.5,13.8h-9.1l-0.6-8.2h-0.2c-2.7,4.1-8.6,9.4-18.7,9.4c-8.9,0-19.5-4.4-19.5-22.1v-29.5h10.3v28
		c0,9.6,3.3,16.1,12.6,16.1c6.9,0,11.7-4.3,13.5-8.3c0.6-1.4,0.9-3,0.9-4.7v-31h10.3V641z"/>
	<path d="M894.8,649.5l25.6-29.8c2.4-2.7,4.8-5.1,7.3-7.8v-0.2h-30.6v-7.4h43.1l-0.1,5.8l-25.2,29.3c-2.3,2.8-4.6,5.3-7.2,7.9v0.2
		h33v7.3h-45.9V649.5z"/>
	<path d="M982.4,654.8l-0.8-6.4h-0.4c-3.1,4-9.2,7.5-17.3,7.5c-11.5,0-17.3-7.2-17.3-14.5c0-12.2,12.1-18.9,34-18.8v-1
		c0-4.2-1.3-11.7-12.8-11.7c-5.3,0-10.7,1.5-14.7,3.7l-2.3-6.1c4.7-2.7,11.4-4.5,18.6-4.5c17.3,0,21.5,10.5,21.5,20.7v18.9
		c0,4.4,0.2,8.7,0.9,12.1H982.4z M980.9,629c-11.2-0.2-23.9,1.6-23.9,11.4c0,5.9,4.4,8.8,9.7,8.8c7.4,0,12-4.2,13.7-8.4
		c0.4-1,0.6-2,0.6-2.9V629z"/>
</g>
</svg>
