<?xml version="1.0" encoding="utf-8"?>
<!-- Generator: Adobe Illustrator 22.1.0, SVG Export Plug-In . SVG Version: 6.00 Build 0)  -->
<svg version="1.1" id="Layer_1" xmlns="http://www.w3.org/2000/svg" xmlns:xlink="http://www.w3.org/1999/xlink" x="0px" y="0px"
	 viewBox="0 0 1000 446.9" style="enable-background:new 0 0 1000 446.9;" xml:space="preserve">
<style type="text/css">
	.st0{fill:#4A555C;}
	.st1{fill:#B01116;}
</style>
<g>
	<polygon class="st0" points="53.2,173.1 53.2,295.3 0,295.3 0,0 191.7,0 191.7,46.9 53.2,46.9 53.2,126.2 179.8,126.2 179.8,173.1 
			"/>
	<path class="st0" d="M999.3,219.1c0,52.4-36.1,79.8-90.5,79.8c-54,0-90.1-29.8-90.1-81.8v-52c0-52,36.1-82.2,90.1-82.2
		c54.4,0,90.5,27.8,90.5,80.2v3.6h-46.4c0-29.8-16.3-42.1-44.1-42.1c-27.4,0-43.2,14.3-43.2,44.5v43.7c0,30.2,15.9,44.5,43.2,44.5
		c27.8,0,44.1-11.9,44.1-41.7h46.4V219.1z"/>
	<path class="st0" d="M353,295.3v-24.2L331.2,283c-19.5,10.3-34.5,15.1-55.2,15.1c-37.3,0-62.3-24.2-62.3-59.6
		c0-43.7,34.1-63.9,77.4-63.9h62.3v-12.3c0-27-15.5-40.1-42.9-40.1c-28.6,0-45.3,11.9-45.3,36.5h-46.8V156
		c0-47.3,37.3-73.9,91.7-73.9c57.2,0,90.1,28.6,90.1,78.6v134.6H353z M353,208.8h-55.6c-29,0-35.7,13.5-35.7,27.4
		c0,14.7,9.1,23.4,25,23.4c13.1,0,24.2-4,36.1-10.3L353,233V208.8z"/>
	<path class="st0" d="M538.6,295.3c-48.4,0-79.8-24.2-79.8-71.8V127H427V86.1h31.8V29.4H508v56.8h57.9V127H508v93.7
		c0,24.6,11.1,33,34.5,33h24.6v41.7H538.6z"/>
	<path class="st0" d="M776.8,229.4c0,42.5-36.5,69.5-91.7,69.5c-54,0-92.5-29.4-92.5-80.6v-49.6c0-52.8,38.5-85.8,92.5-85.8
		c54.4,0,92.1,31.4,92.1,86.6v36.9H638.3v10.3c0,29.8,19.8,42.9,47.2,42.9c27,0,45.3-9.5,45.3-32.2h46V229.4z M731.9,168.7
		c0-29.8-17.5-46.1-46.5-46.1c-29.3,0-47.2,16.3-47.2,46.5v5.1h93.7V168.7z"/>
	<polygon class="st1" points="356.7,424.9 356.7,352.6 332.3,352.6 332.3,339.2 396.8,339.2 396.8,352.6 372.6,352.6 372.6,424.9 	
		"/>
	<path class="st1" d="M436.1,424.9v-7l-6.3,3.5c-5.6,3-10,4.4-16,4.4c-10.8,0-18.1-7-18.1-17.3c0-12.7,9.9-18.6,22.5-18.6h18.1v-3.6
		c0-7.8-4.5-11.6-12.4-11.6c-8.3,0-13.1,3.5-13.1,10.6h-13.6v-0.8c0-13.7,10.8-21.4,26.6-21.4c16.6,0,26.2,8.3,26.2,22.8v39.1H436.1
		z M436.1,399.8H420c-8.4,0-10.4,3.9-10.4,8c0,4.3,2.7,6.8,7.3,6.8c3.8,0,7-1.1,10.5-3l8.8-4.7V399.8z"/>
	<path class="st1" d="M503.8,446.1v-27.9l-6.9,3.8c-4.7,2.5-9.1,3.6-13.6,3.6c-12.6,0-20.9-8.4-20.9-20.8v-20.4
		c0-12.3,8.5-21.1,21.1-21.1c4.3,0,8.6,1,13.4,3.6l7,3.8v-6.6h13.6v82H503.8z M503.8,383.6l-9.7-5.4c-2.5-1.4-5.3-2.3-8.5-2.3
		c-5.8,0-9.6,3.9-9.6,9.9v17.3c0,6,3.8,9.9,9.6,9.9c3.2,0,6-0.9,8.5-2.4l9.7-5.3V383.6z"/>
	<path class="st1" d="M570.8,424.9v-7l-6.5,3.8c-4.3,2.7-8.6,3.9-13.5,3.9c-11.9,0-19.1-8-19.1-19.7v-41.7h14.1v40
		c0,5.3,3.1,8.9,8.1,8.9c3,0,5.4-1.2,8-2.7l8.9-5.2v-41h13.9v60.8H570.8z"/>
	<path class="st1" d="M637.3,424.9v-7l-6.3,3.5c-5.7,3-10,4.4-16,4.4c-10.8,0-18.1-7-18.1-17.3c0-12.7,9.9-18.6,22.5-18.6h18.1v-3.6
		c0-7.8-4.5-11.6-12.4-11.6c-8.3,0-13.1,3.5-13.1,10.6h-13.6v-0.8c0-13.7,10.8-21.4,26.6-21.4c16.6,0,26.2,8.3,26.2,22.8v39.1H637.3
		z M637.3,399.8h-16.1c-8.4,0-10.4,3.9-10.4,8c0,4.3,2.7,6.8,7.3,6.8c3.8,0,7-1.1,10.5-3l8.8-4.7V399.8z"/>
	<path class="st1" d="M664.8,424.9v-60.8h14v8.6l2.6-2.7c4.5-4.3,9-6.5,15-6.5h3.6v14.2h-3.5c-5.3,0-8.8,1-12.8,4.2L679,386v39
		H664.8z"/>
	<path class="st1" d="M724.3,347.8c0,4.3-3.3,6.6-8,6.6c-4.5,0-8-2.3-8-6.6v-2.5c0-4.4,3.5-6.7,8-6.7c4.6,0,8,2.3,8,6.7V347.8z
		 M709.2,364.2h14.3v60.8h-14.3V364.2z"/>
	<path class="st1" d="M765.7,424.9c-14.1,0-23.2-7-23.2-20.9v-28h-9.2v-11.9h9.2v-16.5h14.3v16.5h16.8V376h-16.8v27.2
		c0,7.2,3.2,9.6,10,9.6h7.1v12.1H765.7z"/>
	<path class="st1" d="M800.3,347.8c0,4.3-3.3,6.6-8,6.6c-4.5,0-8-2.3-8-6.6v-2.5c0-4.4,3.5-6.7,8-6.7c4.6,0,8,2.3,8,6.7V347.8z
		 M785.1,364.2h14.3v60.8h-14.3V364.2z"/>
	<path class="st1" d="M853,424.9V385c0-4.6-2.5-9-8.1-9c-3.1,0-5.4,1.2-8,2.7l-8.9,5.3v40.9h-13.9v-60.8H828v7.2l6.5-3.9
		c4.6-2.9,8.9-3.8,13.5-3.9c11.9,0,19.1,8,19.1,19.7v41.7H853z"/>
	<path class="st1" d="M893.4,402.9c-2.8,0-4.1,1.3-4.1,4c0,2.4,1.5,3.8,3.9,3.8h23.5c14.1,0,21.8,5.4,21.8,16.7
		c0,12.7-11.4,19.5-27.9,19.5c-18.7,0-27.1-8.4-27.1-23.1v-6.1c-3.8-1.7-6-5.2-6-10.8c0-6.6,3.5-10.5,8.2-11.8c0,0-4.4-3.5-4.4-11.5
		c0-12.9,9-19.5,22.4-19.5h35.2v11.8h-8.6c0,0,3,2.4,3,8.3c0,11.6-8.5,18.7-22,18.7H893.4z M909.2,392.8c7.4,0,11.5-2.8,11.5-9
		c0-6-3.8-8.9-10.4-8.9H905c-6.6,0-10.6,2.1-10.6,9.1c0,6.1,3.8,8.8,10.4,8.8H909.2z M895.9,421v2.5c0,8.3,3.5,12.9,14.4,12.9
		c9.7,0,14.8-2.7,14.8-8.6c0-5.2-4-6.8-10.4-6.8H895.9z"/>
	<path class="st1" d="M986.3,424.9v-7l-6.3,3.5c-5.6,3-10,4.4-16,4.4c-10.8,0-18.1-7-18.1-17.3c0-12.7,9.9-18.6,22.5-18.6h18.1v-3.6
		c0-7.8-4.5-11.6-12.4-11.6c-8.3,0-13.1,3.5-13.1,10.6h-13.6v-0.8c0-13.7,10.8-21.4,26.6-21.4c16.6,0,26.2,8.3,26.2,22.8v39.1H986.3
		z M986.3,399.8h-16.1c-8.4,0-10.4,3.9-10.4,8c0,4.3,2.7,6.8,7.3,6.8c3.8,0,7-1.1,10.5-3l8.8-4.7V399.8z"/>
</g>
</svg>
