<?xml version="1.0" encoding="utf-8"?>
<!-- Generator: Adobe Illustrator 22.1.0, SVG Export Plug-In . SVG Version: 6.00 Build 0)  -->
<svg version="1.1" id="Layer_1" xmlns="http://www.w3.org/2000/svg" xmlns:xlink="http://www.w3.org/1999/xlink" x="0px" y="0px"
	 viewBox="0 0 600 179.1" style="enable-background:new 0 0 600 179.1;" xml:space="preserve">
<style type="text/css">
	.st0{fill:#4A555C;}
	.st1{fill:#00A096;}
	.st2{fill:#00A0E6;}
	.st3{fill:#D20000;}
	.st4{fill:#00648C;}
	.st5{fill:#6EB41E;}
	.st6{fill:#A5C800;}
</style>
<g>
	<g>
		<path class="st0" d="M576.5,167.3v-2.7l-2.4,1.3c-2.1,1.1-4.1,1.7-6,1.7c-2,0-3.7-0.6-4.9-1.8c-1.3-1.2-1.9-2.8-1.9-4.7
			c0-2.3,0.8-4,2.4-5.2c1.6-1.2,3.6-1.8,6.1-1.8h6.8v-1.3c0-2.9-1.6-4.4-4.7-4.4c-3.3,0-5,1.3-5,4h-5.1V152c0-2.5,0.9-4.5,2.7-6
			c1.8-1.4,4.3-2.1,7.3-2.1c3.1,0,5.6,0.8,7.3,2.3c1.7,1.5,2.6,3.6,2.6,6.3v14.7H576.5z M576.5,157.8h-6.1c-2.6,0-3.9,1-3.9,3
			c0,0.8,0.2,1.4,0.7,1.9c0.5,0.4,1.2,0.7,2,0.7c1.2,0,2.5-0.4,4-1.1l3.3-1.8V157.8z"/>
		<path class="st0" d="M541.5,159c-1,0-1.6,0.5-1.6,1.5c0,1,0.5,1.4,1.5,1.4h8.9c5.5,0,8.2,2.1,8.2,6.3c0,2.3-1,4.2-2.9,5.4
			s-4.5,1.9-7.6,1.9c-6.8,0-10.2-2.9-10.2-8.7v-2.3c-1.5-0.7-2.3-2.1-2.3-4.1c0-1.2,0.3-2.2,0.8-2.9c0.6-0.8,1.3-1.3,2.2-1.5
			c-0.1-0.1-0.3-0.2-0.5-0.4c-0.2-0.2-0.4-0.7-0.7-1.4c-0.3-0.8-0.5-1.6-0.5-2.5c0-2.4,0.8-4.2,2.3-5.5c1.5-1.3,3.6-1.9,6.1-1.9
			h13.3v4.4h-3.3c0.8,0.6,1.1,1.7,1.1,3.1c0,2.2-0.7,3.9-2.2,5.1c-1.5,1.3-3.5,1.9-6.1,1.9H541.5z M547.4,155.2
			c2.9,0,4.3-1.1,4.3-3.4c0-2.2-1.3-3.3-3.9-3.3h-2c-1.3,0-2.3,0.3-3,0.8c-0.7,0.5-1,1.4-1,2.7c0,2.2,1.3,3.3,3.9,3.3H547.4z
			 M542.4,165.8v1c0,1.7,0.4,2.9,1.2,3.7c0.8,0.8,2.2,1.2,4.2,1.2c3.7,0,5.6-1.1,5.6-3.3c0-1.7-1.3-2.6-3.9-2.6H542.4z"/>
		<path class="st0" d="M526.3,167.3v-15c0-1-0.3-1.8-0.8-2.4s-1.3-1-2.3-1c-0.9,0-1.9,0.3-3,1l-3.3,2v15.4h-5.3v-22.9h5.2v2.7
			l2.4-1.5c1.5-0.9,3.2-1.4,5.1-1.5c2.2,0,4,0.7,5.3,2c1.3,1.4,1.9,3.2,1.9,5.4v15.7H526.3z"/>
		<rect x="500.7" y="144.4" class="st0" width="5.4" height="22.9"/>
		<path class="st0" d="M506.4,138.2c0,0.8-0.3,1.4-0.8,1.8c-0.6,0.4-1.3,0.7-2.2,0.7c-0.9,0-1.6-0.2-2.2-0.7c-0.6-0.4-0.8-1-0.8-1.8
			v-1c0-0.8,0.3-1.4,0.8-1.9c0.6-0.4,1.3-0.7,2.2-0.7c0.9,0,1.6,0.2,2.2,0.7c0.6,0.4,0.8,1.1,0.8,1.9V138.2z"/>
		<path class="st0" d="M493.4,167.3c-2.7,0-4.9-0.7-6.4-2c-1.5-1.3-2.3-3.3-2.3-5.8v-10.6h-3.5v-4.5h3.5v-6.2h5.4v6.2h6.3v4.5H490
			v10.3c0,1.3,0.3,2.2,0.9,2.8c0.6,0.5,1.6,0.8,2.9,0.8h2.7v4.6H493.4z"/>
		<rect x="472.1" y="144.4" class="st0" width="5.4" height="22.9"/>
		<path class="st0" d="M477.8,138.2c0,0.8-0.3,1.4-0.8,1.8c-0.6,0.4-1.3,0.7-2.2,0.7c-0.9,0-1.6-0.2-2.2-0.7c-0.6-0.4-0.8-1-0.8-1.8
			v-1c0-0.8,0.3-1.4,0.8-1.9c0.6-0.4,1.3-0.7,2.2-0.7c0.9,0,1.6,0.2,2.2,0.7c0.6,0.4,0.8,1.1,0.8,1.9V138.2z"/>
		<path class="st0" d="M455.3,167.3v-22.9h5.3v3.3l1-1c1.7-1.6,3.6-2.4,5.6-2.4h1.3v5.3h-1.3c-1.9,0-3.5,0.5-4.8,1.6l-1.8,1.5v14.7
			H455.3z"/>
		<path class="st0" d="M445,167.3v-2.7l-2.4,1.3c-2.1,1.1-4.1,1.7-6,1.7c-2,0-3.7-0.6-4.9-1.8c-1.3-1.2-1.9-2.8-1.9-4.7
			c0-2.3,0.8-4,2.4-5.2c1.6-1.2,3.6-1.8,6.1-1.8h6.8v-1.3c0-2.9-1.6-4.4-4.7-4.4c-3.3,0-5,1.3-5,4h-5.1V152c0-2.5,0.9-4.5,2.7-6
			c1.8-1.4,4.3-2.1,7.3-2.1c3.1,0,5.6,0.8,7.3,2.3c1.7,1.5,2.6,3.6,2.6,6.3v14.7H445z M445,157.8h-6.1c-2.6,0-3.9,1-3.9,3
			c0,0.8,0.2,1.4,0.7,1.9c0.5,0.4,1.2,0.7,2,0.7c1.2,0,2.5-0.4,4-1.1l3.3-1.8V157.8z"/>
		<path class="st0" d="M419.9,167.3v-2.7l-2.4,1.4c-1.6,1-3.3,1.5-5.1,1.5c-2.2,0-4-0.7-5.3-2c-1.3-1.4-1.9-3.2-1.9-5.4v-15.7h5.3
			v15.1c0,1,0.3,1.8,0.8,2.4c0.5,0.6,1.3,0.9,2.2,0.9c0.9,0,1.9-0.3,3-1l3.3-2v-15.5h5.3v22.9H419.9z"/>
		<path class="st0" d="M394.7,175.3v-10.5l-2.6,1.4c-1.7,0.9-3.4,1.3-5.1,1.3c-2.3,0-4.2-0.7-5.7-2.2c-1.4-1.4-2.2-3.3-2.2-5.6V152
			c0-2.3,0.7-4.3,2.2-5.7c1.5-1.5,3.4-2.2,5.7-2.2c1.7,0,3.4,0.4,5,1.3l2.7,1.4v-2.5h5.1v30.9H394.7z M394.7,151.7l-3.7-2
			c-1.1-0.6-2.1-0.9-3.2-0.9c-1.1,0-2,0.3-2.6,1c-0.7,0.7-1,1.6-1,2.7v6.5c0,1.1,0.3,2,1,2.7c0.7,0.7,1.5,1,2.6,1
			c1.1,0,2.2-0.3,3.2-0.9l3.7-2V151.7z"/>
		<path class="st0" d="M369.2,167.3v-2.7l-2.4,1.3c-2.1,1.1-4.1,1.7-6,1.7c-2,0-3.7-0.6-4.9-1.8c-1.3-1.2-1.9-2.8-1.9-4.7
			c0-2.3,0.8-4,2.4-5.2c1.6-1.2,3.6-1.8,6.1-1.8h6.8v-1.3c0-2.9-1.6-4.4-4.7-4.4c-3.3,0-5,1.3-5,4h-5.1V152c0-2.5,0.9-4.5,2.7-6
			c1.8-1.4,4.3-2.1,7.3-2.1c3.1,0,5.6,0.8,7.3,2.3c1.7,1.5,2.6,3.6,2.6,6.3v14.7H369.2z M369.2,157.8h-6.1c-2.6,0-3.9,1-3.9,3
			c0,0.8,0.2,1.4,0.7,1.9c0.5,0.4,1.2,0.7,2,0.7c1.2,0,2.5-0.4,4-1.1l3.3-1.8V157.8z"/>
		<polygon class="st0" points="339.2,167.3 339.2,140.1 330,140.1 330,135 354.4,135 354.4,140.1 345.2,140.1 345.2,167.3 		"/>
		<path class="st0" d="M314,159c0,2.8-0.9,5-2.7,6.5c-1.8,1.5-4.2,2.3-7.2,2.3c-3,0-5.4-0.8-7.2-2.4c-1.8-1.6-2.7-3.8-2.7-6.6V153
			c0-2.8,0.9-5,2.7-6.6c1.8-1.6,4.2-2.4,7.2-2.4c3,0,5.5,0.8,7.2,2.3c1.8,1.5,2.7,3.7,2.7,6.5v0.4h-5.1c0-3.1-1.6-4.6-4.8-4.6
			c-3.2,0-4.7,1.6-4.7,4.9v4.8c0,3.2,1.6,4.9,4.7,4.9c3.2,0,4.8-1.5,4.8-4.6h5.1V159z"/>
		<path class="st0" d="M289.6,160.1c0,2.3-0.9,4.2-2.7,5.5c-1.8,1.4-4.3,2.1-7.3,2.1c-3,0-5.5-0.8-7.3-2.3c-1.9-1.6-2.8-3.7-2.8-6.5
			v-5.4c0-2.9,0.9-5.1,2.8-6.8c1.9-1.7,4.3-2.5,7.3-2.5c3,0,5.5,0.8,7.3,2.5c1.8,1.7,2.8,4,2.8,7v4h-15.2v1.1c0,1.6,0.5,2.7,1.4,3.5
			c0.9,0.8,2.2,1.2,3.8,1.2c3.3,0,5-1.2,5-3.5h5V160.1z M284.7,153.4c0-1.6-0.4-2.9-1.3-3.7c-0.9-0.9-2.1-1.3-3.7-1.3
			c-1.6,0-2.9,0.4-3.8,1.3c-0.9,0.9-1.4,2.1-1.4,3.8v0.6h10.3V153.4z"/>
		<path class="st0" d="M263.6,167.3c-2.7,0-4.9-0.7-6.4-2c-1.5-1.3-2.3-3.3-2.3-5.8v-10.6h-3.5v-4.5h3.5v-6.2h5.4v6.2h6.3v4.5h-6.3
			v10.3c0,1.3,0.3,2.2,0.9,2.8c0.6,0.5,1.6,0.8,2.9,0.8h2.7v4.6H263.6z"/>
		<path class="st0" d="M243.3,167.3v-2.7l-2.4,1.3c-2.1,1.1-4.1,1.7-6,1.7c-2,0-3.7-0.6-4.9-1.8c-1.3-1.2-1.9-2.8-1.9-4.7
			c0-2.3,0.8-4,2.4-5.2c1.6-1.2,3.6-1.8,6.1-1.8h6.8v-1.3c0-2.9-1.6-4.4-4.7-4.4c-3.3,0-5,1.3-5,4h-5.1V152c0-2.5,0.9-4.5,2.7-6
			c1.8-1.4,4.3-2.1,7.3-2.1c3.1,0,5.6,0.8,7.3,2.3c1.7,1.5,2.6,3.6,2.6,6.3v14.7H243.3z M243.3,157.8h-6.1c-2.6,0-3.9,1-3.9,3
			c0,0.8,0.2,1.4,0.7,1.9c0.5,0.4,1.2,0.7,2,0.7c1.2,0,2.5-0.4,4-1.1l3.3-1.8V157.8z"/>
		<polygon class="st0" points="210.5,153.9 210.5,167.3 204.7,167.3 204.7,135 225.6,135 225.6,140.1 210.5,140.1 210.5,148.8 
			224.3,148.8 224.3,153.9 		"/>
	</g>
	<g>
		<path class="st2" d="M595.3,114c-4.1,0-7.3-1-9.6-3c-2.3-2-3.5-4.9-3.5-8.8V86.4H577v-6.7h5.2v-9.3h8.1v9.3h9.5v6.7h-9.5v15.4
			c0,2,0.5,3.3,1.4,4.2c0.9,0.8,2.3,1.2,4.3,1.2h4v6.8H595.3z"/>
		<path class="st2" d="M572.2,103.2c0,3.5-1.4,6.2-4.1,8.3c-2.7,2.1-6.4,3.1-10.9,3.1c-4.5,0-8.2-1.2-11-3.5
			c-2.8-2.3-4.2-5.6-4.2-9.7v-8.1c0-4.3,1.4-7.7,4.2-10.3c2.8-2.5,6.5-3.8,10.9-3.8c4.6,0,8.2,1.3,11,3.8c2.8,2.5,4.1,6,4.1,10.4
			v6.1h-22.8v1.7c0,2.3,0.7,4.1,2.1,5.3c1.4,1.2,3.3,1.8,5.6,1.8c5,0,7.4-1.8,7.4-5.3h7.6V103.2z M564.9,93.2c0-2.4-0.7-4.3-2-5.6
			c-1.3-1.3-3.2-2-5.6-2c-2.4,0-4.3,0.7-5.7,2c-1.4,1.3-2.1,3.2-2.1,5.6v0.8h15.4V93.2z"/>
		<path class="st2" d="M526.8,114V91.4c0-1.4-0.4-2.6-1.2-3.6c-0.8-1-1.9-1.5-3.4-1.5c-1.3,0-2.8,0.5-4.5,1.5l-5,3V114h-7.9V79.6
			h7.8v4l3.6-2.2c2.3-1.4,4.8-2.1,7.6-2.2c3.3,0,6,1,7.9,3.1c1.9,2,2.9,4.7,2.9,8.1V114H526.8z"/>
		<path class="st2" d="M479.8,114V79.6h7.9v4.9l1.5-1.5c2.6-2.4,5.4-3.6,8.5-3.6h2v8h-2c-2.8,0-5.2,0.8-7.2,2.3l-2.7,2.2v22H479.8z"
			/>
		<path class="st2" d="M472.3,103.2c0,3.5-1.4,6.2-4.1,8.3c-2.7,2.1-6.4,3.1-10.9,3.1c-4.5,0-8.2-1.2-11-3.5
			c-2.8-2.3-4.2-5.6-4.2-9.7v-8.1c0-4.3,1.4-7.7,4.2-10.3c2.8-2.5,6.5-3.8,10.9-3.8c4.6,0,8.2,1.3,11,3.8c2.8,2.5,4.1,6,4.1,10.4
			v6.1h-22.8v1.7c0,2.3,0.7,4.1,2.1,5.3c1.4,1.2,3.3,1.8,5.6,1.8c5,0,7.4-1.8,7.4-5.3h7.6V103.2z M464.9,93.2c0-2.4-0.7-4.3-2-5.6
			c-1.3-1.3-3.2-2-5.6-2c-2.4,0-4.3,0.7-5.7,2c-1.4,1.3-2.1,3.2-2.1,5.6v0.8h15.4V93.2z"/>
		<path class="st2" d="M433.2,114c-4.1,0-7.3-1-9.6-3c-2.3-2-3.5-4.9-3.5-8.8V86.4h-5.2v-6.7h5.2v-9.3h8.1v9.3h9.5v6.7h-9.5v15.4
			c0,2,0.5,3.3,1.4,4.2c0.9,0.8,2.3,1.2,4.3,1.2h4v6.8H433.2z"/>
		<path class="st2" d="M402.4,114V91.4c0-1.4-0.4-2.6-1.2-3.6c-0.8-1-1.9-1.5-3.4-1.5c-1.3,0-2.8,0.5-4.5,1.5l-5,3V114h-7.9V79.6
			h7.8v4l3.6-2.2c2.3-1.4,4.8-2.1,7.6-2.2c3.3,0,6,1,7.9,3.1c1.9,2,2.9,4.7,2.9,8.1V114H402.4z"/>
		<rect x="362.8" y="65.5" class="st2" width="8.9" height="48.5"/>
		<path class="st2" d="M328.2,114v-4l-3.6,2c-3.1,1.7-6.1,2.5-9.1,2.5c-3,0-5.5-0.9-7.4-2.7s-2.8-4.2-2.8-7.1c0-3.4,1.2-6,3.6-7.8
			c2.4-1.8,5.4-2.7,9.2-2.7h10.2v-2c0-4.4-2.3-6.6-7-6.6c-5,0-7.4,2-7.4,6h-7.7v-0.5c0-3.8,1.4-6.8,4.1-8.9
			c2.7-2.1,6.4-3.2,10.9-3.2c4.7,0,8.3,1.1,10.9,3.4s3.9,5.4,3.9,9.5V114H328.2z M328.2,99.8H319c-3.9,0-5.9,1.5-5.9,4.5
			c0,1.2,0.4,2.2,1.1,2.8c0.7,0.7,1.7,1,3,1c1.8,0,3.8-0.6,5.9-1.7l5-2.7V99.8z"/>
		<path class="st2" d="M281.6,114V79.6h7.9v4.9L291,83c2.6-2.4,5.4-3.6,8.5-3.6h2v8h-2c-2.8,0-5.2,0.8-7.2,2.3l-2.7,2.2v22H281.6z"
			/>
		<path class="st2" d="M266.1,114v-4l-3.6,2c-3.1,1.7-6.1,2.5-9.1,2.5c-3,0-5.5-0.9-7.4-2.7s-2.8-4.2-2.8-7.1c0-3.4,1.2-6,3.6-7.8
			c2.4-1.8,5.4-2.7,9.2-2.7h10.2v-2c0-4.4-2.3-6.6-7-6.6c-5,0-7.4,2-7.4,6H244v-0.5c0-3.8,1.4-6.8,4.1-8.9S254.5,79,259,79
			c4.7,0,8.3,1.1,10.9,3.4s3.9,5.4,3.9,9.5V114H266.1z M266.1,99.8h-9.1c-3.9,0-5.9,1.5-5.9,4.5c0,1.2,0.4,2.2,1.1,2.8
			c0.7,0.7,1.7,1,3,1c1.8,0,3.8-0.6,5.9-1.7l5-2.7V99.8z"/>
		<path class="st2" d="M205.9,126V79.6h7.7v3.7l4-2.2c2.5-1.3,5.1-2,7.7-2c3.5,0,6.4,1.1,8.6,3.3c2.2,2.2,3.3,5,3.3,8.5v11.5
			c0,3.5-1.1,6.4-3.3,8.6c-2.2,2.2-5.1,3.3-8.7,3.3c-2.5,0-5-0.7-7.6-2l-3.9-2.1V126H205.9z M229.3,91.9c0-1.7-0.5-3.1-1.5-4.1
			c-1-1-2.3-1.5-3.9-1.5c-1.6,0-3.2,0.4-4.8,1.3l-5.4,3.1v12.3l5.4,3c1.6,0.9,3.2,1.4,4.8,1.4c1.6,0,2.9-0.5,3.9-1.5
			c1-1,1.5-2.4,1.5-4.1V91.9z"/>
		<path class="st2" d="M478,29.6c0-3.6-2.3-5.3-7-5.3c-2.1,0-3.8,0.4-5,1.2c-1.2,0.8-1.8,1.8-1.8,3.1c0,1.4,0.7,2.5,2.2,3.1
			c1.5,0.6,3.3,1.1,5.4,1.3c2.1,0.2,4.2,0.5,6.4,0.9s3.9,1.3,5.4,2.8c1.5,1.4,2.2,3.5,2.2,6.1c0,3.3-1.3,6-4,7.9
			c-2.7,1.9-6.3,2.8-10.9,2.8c-4.7,0-8.4-1-11-3c-2.6-2-3.9-4.7-3.9-8.2v-0.4h8c0,3.6,2.4,5.3,7.2,5.3c2.2,0,3.9-0.4,5.2-1.2
			c1.2-0.8,1.9-1.8,1.9-3.1c0-1.1-0.5-1.9-1.6-2.5c-1.1-0.6-2.4-1-4-1.1c-1.6-0.1-3.3-0.4-5.2-0.7c-1.8-0.3-3.6-0.8-5.2-1.3
			c-1.6-0.5-2.9-1.5-4-3c-1.1-1.4-1.6-3.3-1.6-5.5c0-3.3,1.3-6,3.9-7.9c2.6-1.9,6.2-2.9,10.7-2.9c4.6,0,8.2,1,10.8,3
			s3.8,4.8,3.8,8.3v0.4H478z"/>
		<path class="st2" d="M441.7,52.8v-4l-3.6,2c-3.1,1.7-6.1,2.5-9.1,2.5c-3,0-5.5-0.9-7.4-2.7c-1.9-1.8-2.8-4.2-2.8-7.1
			c0-3.4,1.2-6,3.6-7.8c2.4-1.8,5.4-2.7,9.2-2.7h10.2v-2c0-4.4-2.3-6.6-7-6.6c-5,0-7.4,2-7.4,6h-7.7v-0.5c0-3.8,1.4-6.8,4.1-8.9
			c2.7-2.1,6.4-3.2,10.9-3.2c4.7,0,8.3,1.1,10.9,3.4s3.9,5.4,3.9,9.5v22.1H441.7z M441.7,38.6h-9.1c-3.9,0-5.9,1.5-5.9,4.5
			c0,1.2,0.4,2.2,1.1,2.8c0.7,0.7,1.7,1,3,1c1.8,0,3.8-0.6,5.9-1.7l5-2.7V38.6z"/>
		<path class="st2" d="M404.1,52.8V29.4c0-2.8-1.2-4.2-3.6-4.2c-1.1,0-2.5,0.5-4.1,1.4l-4.2,2.5v23.7h-7.9V29.5
			c0-2.8-1.2-4.2-3.6-4.2c-1.1,0-2.5,0.4-4.2,1.3l-4.1,2.5v23.7h-7.9V18.4h7.8V22l3.1-1.8c2.3-1.4,4.8-2.1,7.2-2.1
			c4,0,6.7,1.5,8.1,4.6l3.8-2.3c2.5-1.6,5.1-2.3,7.9-2.3c3,0,5.3,0.9,7,2.7c1.7,1.8,2.5,4.4,2.5,7.7v24.2H404.1z"/>
		<path class="st2" d="M357,42c0,3.5-1.4,6.2-4.1,8.3c-2.7,2.1-6.4,3.1-10.9,3.1c-4.5,0-8.2-1.2-11-3.5c-2.8-2.3-4.2-5.6-4.2-9.7V32
			c0-4.3,1.4-7.7,4.2-10.3c2.8-2.5,6.5-3.8,10.9-3.8c4.6,0,8.2,1.3,11,3.8c2.8,2.5,4.1,6,4.1,10.4v6.1h-22.8v1.7
			c0,2.3,0.7,4.1,2.1,5.3c1.4,1.2,3.3,1.8,5.6,1.8c5,0,7.4-1.8,7.4-5.3h7.6V42z M349.7,32c0-2.4-0.7-4.3-2-5.6c-1.3-1.3-3.2-2-5.6-2
			c-2.4,0-4.3,0.7-5.7,2c-1.4,1.3-2.1,3.2-2.1,5.6v0.8h15.4V32z"/>
		<path class="st2" d="M317.9,52.8c-4.1,0-7.3-1-9.6-3c-2.3-2-3.5-4.9-3.5-8.8V25.1h-5.2v-6.7h5.2V9.1h8.1v9.3h9.5v6.7h-9.5v15.4
			c0,2,0.5,3.3,1.4,4.2c0.9,0.8,2.3,1.2,4.3,1.2h4v6.8H317.9z"/>
		<path class="st2" d="M287.5,29.6c0-3.6-2.3-5.3-7-5.3c-2.1,0-3.8,0.4-5,1.2s-1.8,1.8-1.8,3.1c0,1.4,0.7,2.5,2.2,3.1
			c1.5,0.6,3.3,1.1,5.4,1.3c2.1,0.2,4.2,0.5,6.4,0.9c2.1,0.4,3.9,1.3,5.4,2.8c1.5,1.4,2.2,3.5,2.2,6.1c0,3.3-1.3,6-4,7.9
			c-2.7,1.9-6.3,2.8-10.9,2.8c-4.7,0-8.4-1-11-3c-2.6-2-3.9-4.7-3.9-8.2v-0.4h8c0,3.6,2.4,5.3,7.2,5.3c2.2,0,3.9-0.4,5.2-1.2
			c1.2-0.8,1.9-1.8,1.9-3.1c0-1.1-0.5-1.9-1.6-2.5s-2.4-1-4-1.1c-1.6-0.1-3.3-0.4-5.2-0.7c-1.8-0.3-3.6-0.8-5.2-1.3
			c-1.6-0.5-2.9-1.5-4-3c-1.1-1.4-1.6-3.3-1.6-5.5c0-3.3,1.3-6,3.9-7.9c2.6-1.9,6.2-2.9,10.7-2.9c4.6,0,8.2,1,10.8,3
			c2.5,2,3.8,4.8,3.8,8.3v0.4H287.5z"/>
		<rect x="250.3" y="18.4" class="st2" width="8.1" height="34.3"/>
		<path class="st2" d="M258.8,9.2c0,1.2-0.4,2.1-1.2,2.7s-1.9,1-3.3,1c-1.3,0-2.4-0.3-3.2-1c-0.8-0.7-1.3-1.6-1.3-2.7V7.7
			c0-1.2,0.4-2.2,1.3-2.8c0.8-0.7,1.9-1,3.2-1c1.3,0,2.4,0.3,3.3,1s1.2,1.6,1.2,2.8V9.2z"/>
		<path class="st2" d="M233.5,19c0-5.3-3.2-8-9.5-8c-3,0-5.3,0.6-6.9,1.8c-1.6,1.2-2.4,2.9-2.4,5c0,1.6,0.5,2.8,1.5,3.7
			c1,0.9,2.4,1.6,4,2.1c1.7,0.4,3.5,0.8,5.5,1.1c2,0.3,4,0.7,6,1.3c2,0.5,3.8,1.2,5.5,2.1c1.7,0.9,3,2.2,4,4c1,1.8,1.5,4,1.5,6.6
			c0,4.5-1.7,8.1-5.1,10.7c-3.4,2.6-7.9,3.9-13.7,3.9c-6,0-10.6-1.3-13.8-3.8c-3.3-2.5-4.9-6.3-4.9-11.2v-0.5h8.9
			c0,5.4,3.3,8.1,10,8.1c3.1,0,5.5-0.6,7.2-1.8c1.7-1.2,2.5-2.8,2.5-4.9c0-1.5-0.5-2.8-1.5-3.7c-1-1-2.4-1.7-4-2.1
			c-1.7-0.4-3.5-0.8-5.5-1.1c-2-0.3-4-0.8-6-1.3c-2-0.5-3.8-1.2-5.5-2.1c-1.7-0.9-3-2.2-4-4c-1-1.8-1.5-4-1.5-6.7
			c0-4.5,1.6-8,4.9-10.6c3.3-2.6,7.7-3.9,13.3-3.9c5.8,0,10.3,1.2,13.6,3.7c3.2,2.5,4.8,6.2,4.8,11.2V19H233.5z"/>
	</g>
	<g>
		<path class="st2" d="M179.1,144.7c0,19-15.4,34.4-34.4,34.4H31c-17.1,0-31-13.9-31-31c0-17.1,13.9-31,31-31c1.2,0,2.3,0.1,3.5,0.2
			c0-0.1,0-0.1,0-0.2c0-19,15.4-34.4,34.4-34.4c3.6,0,7,0.6,10.3,1.6c6-13.1,19.1-22.2,34.5-22.2c20.9,0,37.9,17,37.9,37.9
			c0,3.7-0.6,7.4-1.6,10.8C166.5,113.2,179.1,127.5,179.1,144.7z M144.7,117.1c-1.9,0-3.8,0.2-5.6,0.6c3.5-5,5.6-11.2,5.6-17.8
			c0-17.1-13.9-31-31-31c-15,0-27.5,10.6-30.4,24.8c-4.2-2.6-9.1-4.1-14.4-4.1c-15.2,0-27.6,12.3-27.6,27.6c0,3.7,0.7,7.1,2,10.3
			c-3.6-2.2-7.8-3.4-12.3-3.4c-13.3,0-24.1,10.8-24.1,24.1c0,13.3,10.8,24.1,24.1,24.1h113.7c15.2,0,27.6-12.3,27.6-27.6
			C172.2,129.4,159.9,117.1,144.7,117.1z"/>
		<rect x="20.7" y="103.3" class="st2" width="6.9" height="6.9"/>
		<rect x="20.7" y="89.6" class="st2" width="6.9" height="6.9"/>
		<rect x="20.7" y="75.8" class="st2" width="6.9" height="6.9"/>
		<rect x="158.4" y="96.4" class="st2" width="6.9" height="6.9"/>
		<rect x="158.4" y="82.7" class="st2" width="6.9" height="6.9"/>
		<rect x="158.4" y="68.9" class="st2" width="6.9" height="6.9"/>
		<rect x="158.4" y="55.1" class="st2" width="6.9" height="6.9"/>
		<path class="st2" d="M41.3,0H6.9C3.1,0,0,3.1,0,6.9V62c0,3.8,3.1,6.9,6.9,6.9h34.4c3.8,0,6.9-3.1,6.9-6.9V6.9
			C48.2,3.1,45.1,0,41.3,0z M24.1,65.4c-1.9,0-3.4-1.5-3.4-3.4c0-1.9,1.5-3.4,3.4-3.4c1.9,0,3.4,1.5,3.4,3.4
			C27.6,63.9,26,65.4,24.1,65.4z M37.9,55.1H10.3c-1.9,0-3.4-1.5-3.4-3.4V10.3c0-1.9,1.5-3.4,3.4-3.4h27.6c1.9,0,3.4,1.5,3.4,3.4
			v41.3C41.3,53.6,39.8,55.1,37.9,55.1z"/>
		<path class="st2" d="M82.7,62c0,3.8-3.1,6.9-6.9,6.9c-3.8,0-6.9-3.1-6.9-6.9c0-3.8,3.1-6.9,6.9-6.9C79.6,55.1,82.7,58.2,82.7,62z
			 M75.8,58.6c-1.9,0-3.4,1.5-3.4,3.4c0,1.9,1.5,3.4,3.4,3.4c1.9,0,3.4-1.5,3.4-3.4C79.2,60.1,77.7,58.6,75.8,58.6z"/>
		<path class="st2" d="M75.8,44.8c0,5.7-4.6,10.3-10.3,10.3s-10.3-4.6-10.3-10.3s4.6-10.3,10.3-10.3S75.8,39.1,75.8,44.8z
			 M65.4,39.6c-2.9,0-5.2,2.3-5.2,5.2s2.3,5.2,5.2,5.2s5.2-2.3,5.2-5.2S68.3,39.6,65.4,39.6z"/>
		<path class="st2" d="M96.4,17.2c0,9.5-7.7,17.2-17.2,17.2S62,26.7,62,17.2S69.7,0,79.2,0S96.4,7.7,96.4,17.2z M79.2,6.9
			c-5.7,0-10.3,4.6-10.3,10.3s4.6,10.3,10.3,10.3c5.7,0,10.3-4.6,10.3-10.3S84.9,6.9,79.2,6.9z"/>
		<path class="st2" d="M172.2,48.2h-62c-3.8,0-6.9-3.1-6.9-6.9V6.9c0-3.8,3.1-6.9,6.9-6.9h62c3.8,0,6.9,3.1,6.9,6.9v34.4
			C179.1,45.1,176,48.2,172.2,48.2z M172.2,37.9V10.3c0-1.9-1.5-3.4-3.4-3.4h-55.1c-1.9,0-3.4,1.5-3.4,3.4v27.6
			c0,1.9,1.5,3.4,3.4,3.4h55.1C170.7,41.3,172.2,39.8,172.2,37.9z"/>
	</g>
</g>
</svg>
