<?xml version="1.0" encoding="utf-8"?>
<!-- Generator: Adobe Illustrator 22.1.0, SVG Export Plug-In . SVG Version: 6.00 Build 0)  -->
<svg version="1.1" id="Layer_1" xmlns="http://www.w3.org/2000/svg" xmlns:xlink="http://www.w3.org/1999/xlink" x="0px" y="0px"
	 viewBox="0 0 600.5 600" style="enable-background:new 0 0 600.5 600;" xml:space="preserve">
<style type="text/css">
	.st0{fill:#4A555C;}
	.st1{fill:#00648C;}
	.st2{fill:#44A929;}
	.st3{fill:#A5C800;}
	.st4{fill:#D20000;}
	.st5{fill:#0096D2;}
	.st6{fill:#00A096;}
	.st7{fill:#00A0E4;}
</style>
<g>
	<g>
		<path class="st0" d="M592.2,586.8v-4.2l-3.8,2.1c-3.3,1.8-6.5,2.6-9.6,2.6c-3.2,0-5.8-1-7.9-2.9c-2-1.9-3-4.4-3-7.5
			c0-3.6,1.3-6.4,3.8-8.3c2.5-1.9,5.8-2.8,9.7-2.8h10.9v-2.1c0-4.7-2.5-7-7.5-7c-5.3,0-7.9,2.1-7.9,6.4h-8.2v-0.5
			c0-4.1,1.5-7.2,4.4-9.5c2.9-2.3,6.8-3.4,11.6-3.4c5,0,8.8,1.2,11.6,3.6s4.1,5.8,4.1,10.1v23.5H592.2z M592.2,571.7h-9.7
			c-4.2,0-6.2,1.6-6.2,4.8c0,1.3,0.4,2.3,1.1,3c0.8,0.7,1.8,1.1,3.2,1.1c1.9,0,4-0.6,6.3-1.8l5.3-2.8V571.7z"/>
		<path class="st0" d="M536.5,573.6c-1.7,0-2.5,0.8-2.5,2.4c0,1.5,0.8,2.3,2.4,2.3h14.1c8.7,0,13.1,3.3,13.1,10
			c0,3.7-1.5,6.6-4.6,8.7c-3,2-7.1,3-12.2,3c-10.8,0-16.3-4.6-16.3-13.8v-3.7c-2.4-1.1-3.6-3.3-3.6-6.5c0-1.9,0.4-3.4,1.3-4.6
			c0.9-1.2,2.1-2,3.6-2.4c-0.2-0.1-0.4-0.4-0.7-0.7c-0.3-0.3-0.7-1.1-1.2-2.3c-0.5-1.2-0.7-2.5-0.7-3.9c0-3.8,1.2-6.7,3.6-8.7
			c2.4-2,5.7-3,9.8-3h21.1v7.1h-5.2c1.2,1,1.8,2.6,1.8,5c0,3.5-1.2,6.2-3.6,8.2c-2.4,2-5.6,3-9.7,3H536.5z M546,567.5
			c4.6,0,6.9-1.8,6.9-5.4c0-3.6-2.1-5.3-6.2-5.3h-3.2c-2.1,0-3.7,0.4-4.8,1.2c-1.1,0.8-1.6,2.2-1.6,4.3c0,3.5,2.1,5.3,6.2,5.3H546z
			 M538,584.4v1.5c0,2.6,0.6,4.6,1.9,5.8c1.3,1.3,3.5,1.9,6.7,1.9c5.9,0,8.9-1.7,8.9-5.2c0-2.7-2.1-4.1-6.2-4.1H538z"/>
		<path class="st0" d="M512.3,586.8v-23.9c0-1.5-0.4-2.8-1.2-3.8s-2-1.6-3.6-1.6c-1.4,0-3,0.5-4.8,1.6l-5.3,3.2v24.6h-8.4v-36.5h8.3
			v4.3l3.9-2.4c2.4-1.5,5.1-2.3,8.1-2.4c3.6,0,6.4,1.1,8.4,3.3c2.1,2.2,3.1,5,3.1,8.6v25.1H512.3z"/>
		<rect x="471.5" y="550.3" class="st0" width="8.6" height="36.5"/>
		<path class="st0" d="M480.6,540.5c0,1.2-0.4,2.2-1.3,2.9c-0.9,0.7-2,1-3.5,1c-1.4,0-2.5-0.3-3.4-1c-0.9-0.7-1.3-1.7-1.3-2.9V539
			c0-1.3,0.4-2.3,1.3-3c0.9-0.7,2-1,3.4-1c1.4,0,2.6,0.3,3.5,1c0.9,0.7,1.3,1.7,1.3,3V540.5z"/>
		<path class="st0" d="M459.8,586.8c-4.3,0-7.7-1.1-10.2-3.2c-2.5-2.1-3.7-5.2-3.7-9.3v-16.8h-5.5v-7.1h5.5v-9.9h8.6v9.9h10.1v7.1
			h-10.1v16.3c0,2.1,0.5,3.6,1.5,4.4c1,0.9,2.5,1.3,4.6,1.3h4.3v7.3H459.8z"/>
		<rect x="425.9" y="550.3" class="st0" width="8.6" height="36.5"/>
		<path class="st0" d="M435,540.5c0,1.2-0.4,2.2-1.3,2.9c-0.9,0.7-2,1-3.5,1c-1.4,0-2.5-0.3-3.4-1c-0.9-0.7-1.3-1.7-1.3-2.9V539
			c0-1.3,0.5-2.3,1.3-3c0.9-0.7,2-1,3.4-1c1.4,0,2.6,0.3,3.5,1c0.9,0.7,1.3,1.7,1.3,3V540.5z"/>
		<path class="st0" d="M399.3,586.8v-36.5h8.4v5.2l1.6-1.6c2.7-2.6,5.7-3.9,9-3.9h2.1v8.5h-2.1c-3,0-5.5,0.8-7.7,2.5l-2.8,2.4v23.4
			H399.3z"/>
		<path class="st0" d="M382.7,586.8v-4.2l-3.8,2.1c-3.3,1.8-6.5,2.6-9.6,2.6c-3.2,0-5.8-1-7.9-2.9c-2-1.9-3-4.4-3-7.5
			c0-3.6,1.3-6.4,3.8-8.3c2.5-1.9,5.8-2.8,9.7-2.8h10.9v-2.1c0-4.7-2.5-7-7.5-7c-5.3,0-7.9,2.1-7.9,6.4h-8.2v-0.5
			c0-4.1,1.5-7.2,4.4-9.5c2.9-2.3,6.8-3.4,11.6-3.4c5,0,8.8,1.2,11.6,3.6c2.7,2.4,4.1,5.8,4.1,10.1v23.5H382.7z M382.7,571.7h-9.7
			c-4.2,0-6.2,1.6-6.2,4.8c0,1.3,0.4,2.3,1.1,3c0.8,0.7,1.8,1.1,3.2,1.1c1.9,0,4-0.6,6.3-1.8l5.3-2.8V571.7z"/>
		<path class="st0" d="M342.8,586.8v-4.2l-3.9,2.3c-2.5,1.6-5.2,2.4-8.1,2.4c-3.6,0-6.4-1.1-8.4-3.3c-2.1-2.2-3.1-5-3.1-8.6v-25.1
			h8.4v24c0,1.6,0.4,2.9,1.3,3.9c0.9,1,2.1,1.5,3.5,1.5c1.4,0,3-0.5,4.8-1.6l5.3-3.1v-24.6h8.4v36.5H342.8z"/>
		<path class="st0" d="M302.6,599.5v-16.7l-4.2,2.3c-2.7,1.4-5.4,2.1-8.2,2.1c-3.7,0-6.8-1.2-9.1-3.5c-2.3-2.3-3.5-5.3-3.5-9v-12.2
			c0-3.7,1.2-6.8,3.5-9.1c2.4-2.4,5.4-3.5,9.1-3.5c2.7,0,5.4,0.7,8,2.1l4.2,2.3v-3.9h8.2v49.2H302.6z M302.6,562l-5.8-3.3
			c-1.7-0.9-3.4-1.4-5.1-1.4c-1.8,0-3.1,0.5-4.2,1.6c-1,1.1-1.6,2.5-1.6,4.3v10.4c0,1.8,0.5,3.2,1.6,4.3c1,1.1,2.4,1.6,4.2,1.6
			c1.8,0,3.5-0.5,5.1-1.5l5.8-3.2V562z"/>
		<path class="st0" d="M262,586.8v-4.2l-3.8,2.1c-3.3,1.8-6.5,2.6-9.6,2.6c-3.2,0-5.8-1-7.9-2.9c-2-1.9-3-4.4-3-7.5
			c0-3.6,1.3-6.4,3.8-8.3c2.5-1.9,5.8-2.8,9.7-2.8h10.9v-2.1c0-4.7-2.5-7-7.5-7c-5.3,0-7.9,2.1-7.9,6.4h-8.2v-0.5
			c0-4.1,1.5-7.2,4.4-9.5c2.9-2.3,6.8-3.4,11.6-3.4c5,0,8.8,1.2,11.6,3.6c2.7,2.4,4.1,5.8,4.1,10.1v23.5H262z M262,571.7h-9.7
			c-4.2,0-6.2,1.6-6.2,4.8c0,1.3,0.4,2.3,1.1,3c0.8,0.7,1.8,1.1,3.2,1.1c1.9,0,4-0.6,6.3-1.8l5.3-2.8V571.7z"/>
		<polygon class="st0" points="214.3,586.8 214.3,543.4 199.7,543.4 199.7,535.3 238.4,535.3 238.4,543.4 223.9,543.4 223.9,586.8 
					"/>
		<path class="st0" d="M174.1,573.5c0,4.5-1.4,7.9-4.3,10.3c-2.8,2.4-6.7,3.6-11.5,3.6c-4.8,0-8.6-1.3-11.5-3.8
			c-2.8-2.5-4.3-6-4.3-10.5v-9.1c0-4.5,1.4-8,4.3-10.5c2.9-2.5,6.7-3.8,11.4-3.8c4.8,0,8.7,1.2,11.5,3.6c2.8,2.4,4.3,5.9,4.3,10.3
			v0.6H166c0-4.9-2.6-7.3-7.7-7.3c-5,0-7.5,2.6-7.5,7.8v7.6c0,5.2,2.5,7.8,7.5,7.8c5.1,0,7.7-2.4,7.7-7.3h8.1V573.5z"/>
		<path class="st0" d="M135.3,575.3c0,3.7-1.5,6.6-4.4,8.8c-2.9,2.2-6.8,3.3-11.6,3.3c-4.8,0-8.7-1.2-11.7-3.7
			c-3-2.5-4.5-5.9-4.5-10.3v-8.7c0-4.6,1.5-8.2,4.5-10.9c3-2.7,6.9-4,11.6-4c4.8,0,8.7,1.3,11.7,4c2.9,2.7,4.4,6.4,4.4,11.1v6.4
			h-24.2v1.8c0,2.5,0.7,4.4,2.2,5.6c1.5,1.2,3.5,1.9,6,1.9c5.3,0,7.9-1.9,7.9-5.6h8V575.3z M127.5,564.7c0-2.6-0.7-4.6-2.1-6
			c-1.4-1.4-3.4-2.1-6-2.1c-2.6,0-4.6,0.7-6.1,2.1c-1.5,1.4-2.2,3.4-2.2,6v0.9h16.3V564.7z"/>
		<path class="st0" d="M93.8,586.8c-4.3,0-7.7-1.1-10.2-3.2c-2.5-2.1-3.7-5.2-3.7-9.3v-16.8h-5.5v-7.1h5.5v-9.9h8.6v9.9h10.1v7.1
			H88.5v16.3c0,2.1,0.5,3.6,1.5,4.4c1,0.9,2.5,1.3,4.6,1.3h4.3v7.3H93.8z"/>
		<path class="st0" d="M61.5,586.8v-4.2l-3.8,2.1c-3.3,1.8-6.5,2.6-9.6,2.6c-3.2,0-5.8-1-7.9-2.9c-2-1.9-3-4.4-3-7.5
			c0-3.6,1.3-6.4,3.8-8.3c2.5-1.9,5.8-2.8,9.7-2.8h10.9v-2.1c0-4.7-2.5-7-7.5-7c-5.3,0-7.9,2.1-7.9,6.4h-8.2v-0.5
			c0-4.1,1.5-7.2,4.4-9.5c2.9-2.3,6.8-3.4,11.6-3.4c5,0,8.8,1.2,11.6,3.6c2.7,2.4,4.1,5.8,4.1,10.1v23.5H61.5z M61.5,571.7h-9.7
			c-4.2,0-6.2,1.6-6.2,4.8c0,1.3,0.4,2.3,1.1,3c0.8,0.7,1.8,1.1,3.2,1.1c1.9,0,4-0.6,6.3-1.8l5.3-2.8V571.7z"/>
		<polygon class="st0" points="9.3,565.5 9.3,586.8 0,586.8 0,535.3 33.4,535.3 33.4,543.5 9.3,543.5 9.3,557.3 31.3,557.3 
			31.3,565.5 		"/>
	</g>
	<g>
		<path class="st5" d="M565.8,503.8c-5.6,0-10.1-1.4-13.3-4.2c-3.2-2.8-4.8-6.8-4.8-12.1v-21.9h-7.2v-9.3h7.2v-12.9h11.2v12.9H572
			v9.3h-13.1v21.2c0,2.7,0.6,4.6,1.9,5.8c1.3,1.1,3.2,1.7,5.9,1.7h5.6v9.4H565.8z"/>
		<path class="st5" d="M534,488.8c0,4.8-1.9,8.6-5.7,11.5c-3.8,2.8-8.8,4.3-15.1,4.3c-6.2,0-11.3-1.6-15.2-4.9
			c-3.9-3.2-5.8-7.7-5.8-13.4v-11.2c0-5.9,1.9-10.7,5.8-14.2c3.9-3.5,8.9-5.3,15.1-5.3c6.3,0,11.3,1.7,15.2,5.2
			c3.8,3.5,5.7,8.3,5.7,14.4v8.4h-31.5v2.3c0,3.2,1,5.7,2.9,7.3c1.9,1.6,4.5,2.4,7.8,2.4c6.8,0,10.3-2.4,10.3-7.3H534V488.8z
			 M523.8,475.1c0-3.4-0.9-5.9-2.8-7.7c-1.9-1.8-4.4-2.7-7.7-2.7c-3.4,0-6,0.9-7.9,2.7c-1.9,1.8-2.8,4.4-2.8,7.8v1.2h21.2V475.1z"/>
		<path class="st5" d="M471.2,503.8v-31.1c0-2-0.5-3.6-1.6-5c-1.1-1.3-2.6-2-4.7-2c-1.8,0-3.9,0.7-6.2,2.1l-6.9,4.1v31.9h-10.9
			v-47.4h10.8v5.6l5-3.1c3.1-1.9,6.6-2.9,10.5-3.1c4.6,0,8.3,1.4,10.9,4.2c2.7,2.8,4,6.5,4,11.2v32.6H471.2z"/>
		<path class="st5" d="M406.4,503.8v-47.4h10.9v6.7l2.1-2.1c3.5-3.4,7.4-5,11.7-5h2.8v11.1h-2.7c-3.8,0-7.2,1.1-10,3.2l-3.7,3.1
			v30.4H406.4z"/>
		<path class="st5" d="M396,488.8c0,4.8-1.9,8.6-5.7,11.5c-3.8,2.8-8.8,4.3-15.1,4.3c-6.2,0-11.3-1.6-15.2-4.9
			c-3.9-3.2-5.8-7.7-5.8-13.4v-11.2c0-5.9,1.9-10.7,5.8-14.2c3.9-3.5,8.9-5.3,15.1-5.3c6.3,0,11.4,1.7,15.2,5.2
			c3.8,3.5,5.7,8.3,5.7,14.4v8.4h-31.5v2.3c0,3.2,1,5.7,2.9,7.3c1.9,1.6,4.5,2.4,7.8,2.4c6.8,0,10.3-2.4,10.3-7.3H396V488.8z
			 M385.8,475.1c0-3.4-0.9-5.9-2.8-7.7c-1.9-1.8-4.4-2.7-7.7-2.7c-3.4,0-6,0.9-7.9,2.7c-1.9,1.8-2.8,4.4-2.8,7.8v1.2h21.2V475.1z"/>
		<path class="st5" d="M342,503.8c-5.6,0-10.1-1.4-13.3-4.2c-3.2-2.8-4.8-6.8-4.8-12.1v-21.9h-7.2v-9.3h7.2v-12.9h11.2v12.9h13.1
			v9.3h-13.1v21.2c0,2.7,0.6,4.6,1.9,5.8c1.3,1.1,3.2,1.7,5.9,1.7h5.6v9.4H342z"/>
		<path class="st5" d="M299.5,503.8v-31.1c0-2-0.5-3.6-1.6-5c-1.1-1.3-2.6-2-4.7-2c-1.8,0-3.9,0.7-6.2,2.1l-6.9,4.1v31.9h-10.9
			v-47.4H280v5.6l5-3.1c3.1-1.9,6.6-2.9,10.5-3.1c4.6,0,8.3,1.4,10.9,4.2c2.7,2.8,4,6.5,4,11.2v32.6H299.5z"/>
		<rect x="244.9" y="436.8" class="st5" width="12.3" height="66.9"/>
		<path class="st5" d="M197,503.8v-5.5l-4.9,2.7c-4.3,2.3-8.5,3.4-12.5,3.4c-4.2,0-7.6-1.2-10.2-3.7s-3.9-5.7-3.9-9.8
			c0-4.7,1.6-8.3,4.9-10.8c3.3-2.5,7.5-3.7,12.6-3.7h14.1v-2.8c0-6.1-3.2-9.1-9.7-9.1c-6.8,0-10.3,2.8-10.3,8.3h-10.6v-0.6
			c0-5.3,1.9-9.4,5.7-12.3c3.8-2.9,8.8-4.4,15.1-4.4c6.5,0,11.5,1.6,15.1,4.7s5.4,7.5,5.4,13.1v30.5H197z M197,484.2h-12.6
			c-5.4,0-8.1,2.1-8.1,6.2c0,1.7,0.5,3,1.5,3.9c1,0.9,2.4,1.4,4.2,1.4c2.5,0,5.2-0.8,8.2-2.3l6.8-3.7V484.2z"/>
		<path class="st5" d="M132.8,503.8v-47.4h10.9v6.7l2.1-2.1c3.5-3.4,7.4-5,11.7-5h2.8v11.1h-2.7c-3.8,0-7.2,1.1-10,3.2l-3.7,3.1
			v30.4H132.8z"/>
		<path class="st5" d="M111.3,503.8v-5.5l-4.9,2.7c-4.3,2.3-8.5,3.4-12.5,3.4c-4.2,0-7.6-1.2-10.2-3.7c-2.6-2.5-3.9-5.7-3.9-9.8
			c0-4.7,1.6-8.3,4.9-10.8c3.3-2.5,7.5-3.7,12.6-3.7h14.1v-2.8c0-6.1-3.2-9.1-9.7-9.1c-6.8,0-10.3,2.8-10.3,8.3H80.8v-0.6
			c0-5.3,1.9-9.4,5.7-12.3c3.8-2.9,8.8-4.4,15.1-4.4c6.5,0,11.5,1.6,15.1,4.7s5.4,7.5,5.4,13.1v30.5H111.3z M111.3,484.2H98.7
			c-5.4,0-8.1,2.1-8.1,6.2c0,1.7,0.5,3,1.5,3.9c1,0.9,2.4,1.4,4.2,1.4c2.5,0,5.2-0.8,8.2-2.3l6.8-3.7V484.2z"/>
		<path class="st5" d="M28.2,520.3v-64h10.6v5.1l5.5-3c3.5-1.9,7-2.8,10.6-2.8c4.9,0,8.8,1.5,11.8,4.5c3,3,4.5,6.9,4.5,11.7v15.9
			c0,4.9-1.5,8.8-4.6,11.9c-3.1,3.1-7,4.6-12,4.6c-3.5,0-7-0.9-10.4-2.8l-5.4-3v21.8H28.2z M60.5,473.3c0-2.3-0.7-4.2-2-5.6
			c-1.3-1.4-3.1-2.1-5.4-2.1c-2.2,0-4.4,0.6-6.7,1.8l-7.5,4.2v16.9l7.5,4.1c2.2,1.3,4.4,1.9,6.7,1.9c2.2,0,4-0.7,5.4-2.1
			c1.3-1.4,2-3.3,2-5.6V473.3z"/>
		<path class="st5" d="M483.1,381.8c0-4.9-3.2-7.4-9.6-7.4c-2.9,0-5.2,0.5-6.8,1.6c-1.6,1.1-2.4,2.5-2.4,4.2c0,2,1,3.4,3.1,4.3
			c2,0.9,4.5,1.5,7.4,1.8c2.9,0.3,5.8,0.7,8.8,1.3c2.9,0.6,5.4,1.8,7.5,3.8c2,2,3.1,4.8,3.1,8.4c0,4.6-1.8,8.2-5.5,10.8
			c-3.7,2.6-8.7,3.9-15,3.9c-6.5,0-11.6-1.4-15.2-4.1c-3.6-2.7-5.4-6.5-5.4-11.4v-0.5h11c0,4.9,3.3,7.4,9.9,7.4
			c3.1,0,5.4-0.5,7.2-1.6c1.7-1.1,2.6-2.5,2.6-4.2c0-1.5-0.7-2.7-2.2-3.5c-1.5-0.8-3.3-1.3-5.5-1.5c-2.2-0.2-4.6-0.5-7.2-1
			c-2.5-0.5-4.9-1.1-7.1-1.8c-2.2-0.7-4.1-2.1-5.5-4.1c-1.5-2-2.2-4.5-2.2-7.6c0-4.6,1.8-8.2,5.4-10.9c3.6-2.6,8.5-4,14.7-4
			c6.4,0,11.4,1.4,14.8,4.1c3.5,2.8,5.2,6.6,5.2,11.4v0.5H483.1z"/>
		<path class="st5" d="M432.9,413.8v-5.5L428,411c-4.3,2.3-8.5,3.4-12.5,3.4c-4.2,0-7.6-1.2-10.2-3.7c-2.6-2.5-3.9-5.7-3.9-9.8
			c0-4.7,1.6-8.3,4.9-10.8c3.3-2.5,7.5-3.7,12.6-3.7H433v-2.8c0-6.1-3.2-9.1-9.7-9.1c-6.8,0-10.3,2.8-10.3,8.3h-10.6v-0.6
			c0-5.3,1.9-9.4,5.7-12.3c3.8-2.9,8.8-4.4,15.1-4.4c6.5,0,11.5,1.6,15.1,4.7s5.4,7.5,5.4,13.1v30.5H432.9z M432.9,394.2h-12.6
			c-5.4,0-8.1,2.1-8.1,6.2c0,1.7,0.5,3,1.5,3.9c1,0.9,2.4,1.4,4.2,1.4c2.5,0,5.2-0.8,8.2-2.3l6.8-3.7V394.2z"/>
		<path class="st5" d="M381.1,413.8v-32.2c0-3.9-1.7-5.8-5-5.8c-1.5,0-3.4,0.6-5.7,1.9l-5.8,3.5v32.7h-10.9v-32.1
			c0-3.9-1.6-5.8-4.9-5.8c-1.6,0-3.5,0.6-5.8,1.8l-5.7,3.5v32.7h-10.9v-47.4h10.7v4.9l4.2-2.5c3.2-1.9,6.6-2.9,10-2.9
			c5.5,0,9.3,2.1,11.2,6.4l5.2-3.1c3.5-2.2,7.1-3.2,10.9-3.2c4.1,0,7.4,1.3,9.7,3.8c2.3,2.5,3.5,6.1,3.5,10.6v33.5H381.1z"/>
		<path class="st5" d="M316.1,398.9c0,4.8-1.9,8.6-5.7,11.5c-3.8,2.8-8.8,4.3-15.1,4.3c-6.2,0-11.3-1.6-15.2-4.9
			c-3.9-3.2-5.8-7.7-5.8-13.4v-11.2c0-5.9,1.9-10.7,5.8-14.2c3.9-3.5,8.9-5.3,15.1-5.3c6.3,0,11.3,1.7,15.2,5.2
			c3.8,3.5,5.7,8.3,5.7,14.4v8.4h-31.5v2.3c0,3.2,1,5.7,2.9,7.3c1.9,1.6,4.5,2.4,7.8,2.4c6.8,0,10.3-2.4,10.3-7.3h10.4V398.9z
			 M305.9,385.1c0-3.4-0.9-5.9-2.8-7.7c-1.9-1.8-4.4-2.7-7.7-2.7c-3.4,0-6,0.9-7.9,2.7c-1.9,1.8-2.8,4.4-2.8,7.8v1.2h21.2V385.1z"/>
		<path class="st5" d="M262.1,413.8c-5.6,0-10.1-1.4-13.3-4.2c-3.2-2.8-4.8-6.8-4.8-12.1v-21.9h-7.2v-9.3h7.2v-12.9h11.2v12.9h13.1
			v9.3h-13.1v21.2c0,2.7,0.6,4.6,1.9,5.8c1.3,1.1,3.2,1.7,5.9,1.7h5.6v9.4H262.1z"/>
		<path class="st5" d="M220.1,381.8c0-4.9-3.2-7.4-9.6-7.4c-2.9,0-5.2,0.5-6.8,1.6c-1.6,1.1-2.4,2.5-2.4,4.2c0,2,1,3.4,3.1,4.3
			c2,0.9,4.5,1.5,7.4,1.8c2.9,0.3,5.8,0.7,8.8,1.3c2.9,0.6,5.4,1.8,7.5,3.8c2,2,3.1,4.8,3.1,8.4c0,4.6-1.8,8.2-5.5,10.8
			c-3.7,2.6-8.7,3.9-15,3.9c-6.5,0-11.6-1.4-15.2-4.1c-3.6-2.7-5.4-6.5-5.4-11.4v-0.5h11c0,4.9,3.3,7.4,9.9,7.4
			c3.1,0,5.4-0.5,7.2-1.6c1.7-1.1,2.6-2.5,2.6-4.2c0-1.5-0.7-2.7-2.2-3.5s-3.3-1.3-5.5-1.5c-2.2-0.2-4.6-0.5-7.2-1
			c-2.5-0.5-4.9-1.1-7.2-1.8c-2.2-0.7-4.1-2.1-5.5-4.1c-1.5-2-2.2-4.5-2.2-7.6c0-4.6,1.8-8.2,5.4-10.9c3.6-2.6,8.5-4,14.8-4
			c6.4,0,11.4,1.4,14.8,4.1c3.5,2.8,5.2,6.6,5.2,11.4v0.5H220.1z"/>
		<rect x="168.8" y="366.4" class="st5" width="11.2" height="47.4"/>
		<path class="st5" d="M180.6,353.6c0,1.6-0.6,2.9-1.7,3.8c-1.1,0.9-2.6,1.3-4.5,1.3c-1.8,0-3.3-0.4-4.5-1.3
			c-1.2-0.9-1.8-2.2-1.8-3.8v-2c0-1.7,0.6-3,1.8-3.9c1.2-0.9,2.7-1.3,4.5-1.3c1.9,0,3.4,0.4,4.5,1.3c1.1,0.9,1.7,2.2,1.7,3.9V353.6z
			"/>
		<path class="st5" d="M145.6,367.2c0-7.4-4.4-11.1-13.1-11.1c-4.1,0-7.3,0.8-9.5,2.5c-2.2,1.6-3.3,3.9-3.3,6.9
			c0,2.2,0.7,3.9,2.1,5.2c1.4,1.3,3.3,2.2,5.5,2.8c2.3,0.6,4.8,1.1,7.6,1.6c2.8,0.4,5.5,1,8.3,1.8c2.8,0.7,5.3,1.7,7.6,2.9
			c2.3,1.2,4.1,3,5.5,5.5c1.4,2.5,2.1,5.5,2.1,9.1c0,6.2-2.3,11.2-7,14.8c-4.6,3.6-11,5.4-18.9,5.4c-8.2,0-14.6-1.7-19.1-5.2
			c-4.5-3.5-6.8-8.6-6.8-15.5V393h12.2c0,7.4,4.6,11.2,13.9,11.2c4.3,0,7.6-0.8,10-2.5c2.3-1.6,3.5-3.9,3.5-6.8
			c0-2.1-0.7-3.8-2.1-5.1c-1.4-1.3-3.3-2.3-5.5-2.9c-2.3-0.6-4.8-1.1-7.6-1.6c-2.8-0.4-5.5-1-8.3-1.8c-2.8-0.7-5.3-1.7-7.6-2.9
			c-2.3-1.2-4.1-3.1-5.5-5.6c-1.4-2.5-2.1-5.6-2.1-9.2c0-6.2,2.3-11.1,6.8-14.7c4.5-3.6,10.7-5.4,18.4-5.4c8,0,14.3,1.7,18.7,5.2
			c4.4,3.4,6.7,8.6,6.7,15.4v0.8H145.6z"/>
	</g>
	<g>
		<path class="st5" d="M457.1,253.4c0,33.3-27,60.3-60.3,60.3H197.7c-30,0-54.3-24.3-54.3-54.3c0-30,24.3-54.3,54.3-54.3
			c2,0,4.1,0.1,6.1,0.4c0-0.1,0-0.2,0-0.4c0-33.3,27-60.3,60.3-60.3c6.3,0,12.3,1,18,2.8c10.4-23,33.5-39,60.4-39
			c36.7,0,66.4,29.7,66.4,66.4c0,6.6-1,12.9-2.8,18.9C435,198.4,457.1,223.3,457.1,253.4z M396.8,205.2c-3.4,0-6.7,0.4-9.9,1
			c6.2-8.8,9.9-19.6,9.9-31.2c0-30-24.3-54.3-54.3-54.3c-26.3,0-48.2,18.6-53.2,43.4c-7.4-4.5-16-7.2-25.2-7.2
			c-26.7,0-48.3,21.6-48.3,48.3c0,6.4,1.3,12.5,3.5,18.1c-6.3-3.8-13.7-6-21.6-6c-23.3,0-42.2,18.9-42.2,42.2
			c0,23.3,18.9,42.2,42.2,42.2h199.1c26.7,0,48.3-21.6,48.3-48.3S423.4,205.2,396.8,205.2z"/>
		<rect x="179.5" y="181" class="st5" width="12.1" height="12.1"/>
		<rect x="179.5" y="156.9" class="st5" width="12.1" height="12.1"/>
		<rect x="179.5" y="132.8" class="st5" width="12.1" height="12.1"/>
		<rect x="420.9" y="169" class="st5" width="12.1" height="12.1"/>
		<rect x="420.9" y="144.8" class="st5" width="12.1" height="12.1"/>
		<rect x="420.9" y="120.7" class="st5" width="12.1" height="12.1"/>
		<rect x="420.9" y="96.6" class="st5" width="12.1" height="12.1"/>
		<path class="st5" d="M215.8,0h-60.3c-6.7,0-12.1,5.4-12.1,12.1v96.6c0,6.7,5.4,12.1,12.1,12.1h60.3c6.7,0,12.1-5.4,12.1-12.1V12.1
			C227.8,5.4,222.4,0,215.8,0z M185.6,114.7c-3.3,0-6-2.7-6-6c0-3.3,2.7-6,6-6c3.3,0,6,2.7,6,6C191.6,112,188.9,114.7,185.6,114.7z
			 M209.7,96.6h-48.3c-3.3,0-6-2.7-6-6V18.1c0-3.3,2.7-6,6-6h48.3c3.3,0,6,2.7,6,6v72.4C215.8,93.8,213.1,96.6,209.7,96.6z"/>
		<path class="st5" d="M288.2,108.6c0,6.7-5.4,12.1-12.1,12.1c-6.7,0-12.1-5.4-12.1-12.1c0-6.7,5.4-12.1,12.1-12.1
			C282.8,96.6,288.2,102,288.2,108.6z M276.1,102.6c-3.3,0-6,2.7-6,6c0,3.3,2.7,6,6,6s6-2.7,6-6
			C282.1,105.3,279.4,102.6,276.1,102.6z"/>
		<path class="st5" d="M276.1,78.4c0,10-8.1,18.1-18.1,18.1c-10,0-18.1-8.1-18.1-18.1S248,60.3,258,60.3
			C268,60.3,276.1,68.4,276.1,78.4z M258,69.4c-5,0-9.1,4.1-9.1,9.1c0,5,4.1,9.1,9.1,9.1s9.1-4.1,9.1-9.1
			C267,73.4,263,69.4,258,69.4z"/>
		<path class="st5" d="M312.3,30.2c0,16.7-13.5,30.2-30.2,30.2c-16.7,0-30.2-13.5-30.2-30.2S265.5,0,282.1,0
			C298.8,0,312.3,13.5,312.3,30.2z M282.1,12.1c-10,0-18.1,8.1-18.1,18.1s8.1,18.1,18.1,18.1s18.1-8.1,18.1-18.1
			S292.1,12.1,282.1,12.1z"/>
		<path class="st5" d="M445.1,84.5H336.4c-6.7,0-12.1-5.4-12.1-12.1V12.1c0-6.7,5.4-12.1,12.1-12.1h108.6c6.7,0,12.1,5.4,12.1,12.1
			v60.3C457.1,79.1,451.7,84.5,445.1,84.5z M445.1,66.4V18.1c0-3.3-2.7-6-6-6h-96.6c-3.3,0-6,2.7-6,6v48.3c0,3.3,2.7,6,6,6H439
			C442.4,72.4,445.1,69.7,445.1,66.4z"/>
	</g>
</g>
</svg>
